<svg xmlns="http://www.w3.org/2000/svg" width="623.045" height="9020.818" viewBox="0 0 623.045 9020.818">
  <g id="Grupo_105" data-name="Grupo 105" transform="translate(-4580.955 -9523)">
    <g id="Componente_4_1" data-name="Componente 4 – 1" transform="translate(4580.955 9523)">
      <path id="Caminho_26" data-name="Caminho 26" d="M308.6.5V170.2a66.666,66.666,0,0,0-45.332,11.151c-11.151,7.515-15.03,26.424-18.666,48.484-7.515,86.543-37.575,143.027-94.058,176.723A254.3,254.3,0,0,1,18.909,433.221H0V263.528H3.636A78.543,78.543,0,0,0,60.12,248.74a78.059,78.059,0,0,0,18.909-56.483A363.629,363.629,0,0,1,94.058,98.2,105.452,105.452,0,0,1,128,45.351,186.177,186.177,0,0,1,259.63.261Z" transform="translate(435.407) rotate(90)" fill="#1a1a1a" fill-rule="evenodd"/>
      <path id="Caminho_27" data-name="Caminho 27" d="M162,0V165.572h75.15V335.265H162A117.089,117.089,0,0,0,180.67,407.99,72.725,72.725,0,0,0,237.153,426.9V596.592H218.487a203.147,203.147,0,0,1-101.573-26.424,172.844,172.844,0,0,1-79.029-67.635A279.508,279.508,0,0,1,.068,355.87V0Z" transform="translate(596.596 342.228) rotate(90)" fill="#1a1a1a" fill-rule="evenodd"/>
      <path id="Caminho_28" data-name="Caminho 28" d="M0,0H161.935V240.721c0,26.424,7.515,37.575,30.06,37.575,18.666,0,30.06-11.151,30.06-37.575V0H383.991V237.085A193.934,193.934,0,0,1,327.507,379.87a184.48,184.48,0,0,1-135.27,56.483A184.48,184.48,0,0,1,41.7,368.718C11.636,334.78.242,285.811.242,225.692V0Z" transform="translate(438.54 658.408) rotate(90)" fill="#1a1a1a" fill-rule="evenodd"/>
      <path id="Caminho_29" data-name="Caminho 29" d="M289.772,0H451.465V357.567a245.328,245.328,0,0,1-52.6,161.693,232.478,232.478,0,0,1-75.392,56.484,219.874,219.874,0,0,1-255.751-45.09A205.087,205.087,0,0,1,.081,372.6,216.479,216.479,0,0,1,67.716,214.54a212.843,212.843,0,0,1,154.178-64h41.453v180.6a59.635,59.635,0,0,0-37.575-18.666,68.362,68.362,0,0,0-45.09,18.666,65.452,65.452,0,0,0-15.03,45.332,54.3,54.3,0,0,0,18.666,44.847A56.726,56.726,0,0,0,225.773,436.6c41.454,0,64-26.424,64-86.543Z" transform="translate(600.475 1109.953) rotate(90)" fill="#1a1a1a" fill-rule="evenodd"/>
      <path id="Caminho_30" data-name="Caminho 30" d="M82.665.025a77.089,77.089,0,0,1,79.029,79.028,68.12,68.12,0,0,1-22.546,52.6,81.938,81.938,0,0,1-112.967,0,68.118,68.118,0,0,1-22.059-52.6A77.089,77.089,0,0,1,82.665.025Zm79.029,191.753V620.859H0V191.778Z" transform="translate(623.045 1644.324) rotate(90)" fill="#1a1a1a" fill-rule="evenodd"/>
      <path id="Caminho_31" data-name="Caminho 31" d="M225.95,447.892A218.176,218.176,0,0,1,64.258,380.258,213.567,213.567,0,0,1,.259,222.2a202.173,202.173,0,0,1,64-158.057A230.054,230.054,0,0,1,225.95.146V158.2a62.3,62.3,0,0,0-45.089,18.909,61.336,61.336,0,0,0-18.909,45.09,62.3,62.3,0,0,0,18.909,45.09A50.907,50.907,0,0,0,225.95,286.2h0V447.892ZM229.83.146a199.51,199.51,0,0,1,154.178,64A218.174,218.174,0,0,1,451.885,222.2a211.389,211.389,0,0,1-67.878,158.057A210.661,210.661,0,0,1,225.95,447.892h0V286.2A48.485,48.485,0,0,0,267.4,267.291a50.909,50.909,0,0,0,18.909-45.09,50.424,50.424,0,0,0-18.909-45.09A60.365,60.365,0,0,0,225.95,158.2V.146Z" transform="translate(450.079 1877.271) rotate(90)" fill="#1a1a1a" fill-rule="evenodd"/>
      <path id="Caminho_32" data-name="Caminho 32" d="M190.88,372.9v-144q48.483,0,48.483-37.817c0-23.03-12.605-34.423-37.817-34.423s-38.3,15.757-38.3,48.484V563.922H.1V220.9a298.634,298.634,0,0,1,10.666-87.028A173.57,173.57,0,0,1,47.126,70.358a205.808,205.808,0,0,1,72.726-51.393A222.291,222.291,0,0,1,209.546.057,192.239,192.239,0,0,1,350.149,56.3a188.363,188.363,0,0,1,56.969,139.633A175.031,175.031,0,0,1,355.967,327.08c-31.03,31.03-78.058,46.3-140.6,46.3H191.123ZM768.32,227.445V349.867H661.9a56.724,56.724,0,0,0-30.788,6.3,24.24,24.24,0,0,0-8.969,21.575c0,11.636,2.909,19.151,9.211,22.787a84.359,84.359,0,0,0,37.816,5.576H778.987V562.953H650.505A199.269,199.269,0,0,1,512.327,519.8a159.759,159.759,0,0,1-48.484-125.088V179.447A162.418,162.418,0,0,1,509.176,58.237,176.482,176.482,0,0,1,637.657,14.845H779.714v156.6H675.475c-28.12,0-42.182,9.212-42.182,27.393a24.242,24.242,0,0,0,9.939,22.3,72.73,72.73,0,0,0,35.879,6.3ZM1243.7,14.845,1074.01,406.593H1243.7V564.165H826.986L996.679,172.659H817.289V14.845Z" transform="translate(565.139 2489.541) rotate(90)" fill="#1a1a1a"/>
    </g>
    <g id="Componente_4_2" data-name="Componente 4 – 2" transform="translate(4580.955 14176.852)">
      <path id="Caminho_26-2" data-name="Caminho 26" d="M308.6.5V170.2a66.666,66.666,0,0,0-45.332,11.151c-11.151,7.515-15.03,26.424-18.666,48.484-7.515,86.543-37.575,143.027-94.058,176.723A254.3,254.3,0,0,1,18.909,433.221H0V263.528H3.636A78.543,78.543,0,0,0,60.12,248.74a78.059,78.059,0,0,0,18.909-56.483A363.629,363.629,0,0,1,94.058,98.2,105.452,105.452,0,0,1,128,45.351,186.177,186.177,0,0,1,259.63.261Z" transform="translate(435.407) rotate(90)" fill="#1a1a1a" fill-rule="evenodd"/>
      <path id="Caminho_27-2" data-name="Caminho 27" d="M162,0V165.572h75.15V335.265H162A117.089,117.089,0,0,0,180.67,407.99,72.725,72.725,0,0,0,237.153,426.9V596.592H218.487a203.147,203.147,0,0,1-101.573-26.424,172.844,172.844,0,0,1-79.029-67.635A279.508,279.508,0,0,1,.068,355.87V0Z" transform="translate(596.596 342.228) rotate(90)" fill="#1a1a1a" fill-rule="evenodd"/>
      <path id="Caminho_28-2" data-name="Caminho 28" d="M0,0H161.935V240.721c0,26.424,7.515,37.575,30.06,37.575,18.666,0,30.06-11.151,30.06-37.575V0H383.991V237.085A193.934,193.934,0,0,1,327.507,379.87a184.48,184.48,0,0,1-135.27,56.483A184.48,184.48,0,0,1,41.7,368.718C11.636,334.78.242,285.811.242,225.692V0Z" transform="translate(438.54 658.408) rotate(90)" fill="#1a1a1a" fill-rule="evenodd"/>
      <path id="Caminho_29-2" data-name="Caminho 29" d="M289.772,0H451.465V357.567a245.328,245.328,0,0,1-52.6,161.693,232.478,232.478,0,0,1-75.392,56.484,219.874,219.874,0,0,1-255.751-45.09A205.087,205.087,0,0,1,.081,372.6,216.479,216.479,0,0,1,67.716,214.54a212.843,212.843,0,0,1,154.178-64h41.453v180.6a59.635,59.635,0,0,0-37.575-18.666,68.362,68.362,0,0,0-45.09,18.666,65.452,65.452,0,0,0-15.03,45.332,54.3,54.3,0,0,0,18.666,44.847A56.726,56.726,0,0,0,225.773,436.6c41.454,0,64-26.424,64-86.543Z" transform="translate(600.475 1109.953) rotate(90)" fill="#1a1a1a" fill-rule="evenodd"/>
      <path id="Caminho_30-2" data-name="Caminho 30" d="M82.665.025a77.089,77.089,0,0,1,79.029,79.028,68.12,68.12,0,0,1-22.546,52.6,81.938,81.938,0,0,1-112.967,0,68.118,68.118,0,0,1-22.059-52.6A77.089,77.089,0,0,1,82.665.025Zm79.029,191.753V620.859H0V191.778Z" transform="translate(623.045 1644.324) rotate(90)" fill="#1a1a1a" fill-rule="evenodd"/>
      <path id="Caminho_31-2" data-name="Caminho 31" d="M225.95,447.892A218.176,218.176,0,0,1,64.258,380.258,213.567,213.567,0,0,1,.259,222.2a202.173,202.173,0,0,1,64-158.057A230.054,230.054,0,0,1,225.95.146V158.2a62.3,62.3,0,0,0-45.089,18.909,61.336,61.336,0,0,0-18.909,45.09,62.3,62.3,0,0,0,18.909,45.09A50.907,50.907,0,0,0,225.95,286.2h0V447.892ZM229.83.146a199.51,199.51,0,0,1,154.178,64A218.174,218.174,0,0,1,451.885,222.2a211.389,211.389,0,0,1-67.878,158.057A210.661,210.661,0,0,1,225.95,447.892h0V286.2A48.485,48.485,0,0,0,267.4,267.291a50.909,50.909,0,0,0,18.909-45.09,50.424,50.424,0,0,0-18.909-45.09A60.365,60.365,0,0,0,225.95,158.2V.146Z" transform="translate(450.079 1877.271) rotate(90)" fill="#1a1a1a" fill-rule="evenodd"/>
      <path id="Caminho_32-2" data-name="Caminho 32" d="M190.88,372.9v-144q48.483,0,48.483-37.817c0-23.03-12.605-34.423-37.817-34.423s-38.3,15.757-38.3,48.484V563.922H.1V220.9a298.634,298.634,0,0,1,10.666-87.028A173.57,173.57,0,0,1,47.126,70.358a205.808,205.808,0,0,1,72.726-51.393A222.291,222.291,0,0,1,209.546.057,192.239,192.239,0,0,1,350.149,56.3a188.363,188.363,0,0,1,56.969,139.633A175.031,175.031,0,0,1,355.967,327.08c-31.03,31.03-78.058,46.3-140.6,46.3H191.123ZM768.32,227.445V349.867H661.9a56.724,56.724,0,0,0-30.788,6.3,24.24,24.24,0,0,0-8.969,21.575c0,11.636,2.909,19.151,9.211,22.787a84.359,84.359,0,0,0,37.816,5.576H778.987V562.953H650.505A199.269,199.269,0,0,1,512.327,519.8a159.759,159.759,0,0,1-48.484-125.088V179.447A162.418,162.418,0,0,1,509.176,58.237,176.482,176.482,0,0,1,637.657,14.845H779.714v156.6H675.475c-28.12,0-42.182,9.212-42.182,27.393a24.242,24.242,0,0,0,9.939,22.3,72.73,72.73,0,0,0,35.879,6.3ZM1243.7,14.845,1074.01,406.593H1243.7V564.165H826.986L996.679,172.659H817.289V14.845Z" transform="translate(565.139 2489.541) rotate(90)" fill="#1a1a1a"/>
    </g>
    <g id="peixe" transform="translate(5030.613 13543.129) rotate(90)">
      <g id="Layer_1" data-name="Layer 1" transform="translate(0 0)">
        <path id="Caminho_21" data-name="Caminho 21" d="M28.3,128.459,0,100.143c16.681-5.817,31.2,0,44.263,16.681,30.481-47.163,47.9-66.064,102.308-84.893,2.9-10.882,0-22.5-4.368-31.931,10.9,1.45,31.931,13.782,39.914,27.527,116.824,7.964,158.188,62.394,164.721,138.588l-47.163,9.414,43.492,10.937c-29.711,109.575-248.843,142.222-296.005-37-8.7,17.415-21.049,23.857-35.546,23.857Z" transform="translate(0 0)" fill="#1a1a1a" fill-rule="evenodd"/>
        <path id="Caminho_22" data-name="Caminho 22" d="M151.771,166.846c38.538,0,70.377-29.013,70.377-63.844S190.217,39.14,151.771,39.14C112.591,39.14,80.66,68.172,80.66,103s31.931,63.862,71.111,63.844Z" transform="translate(67.361 32.687)" fill="#1a1a1a" fill-rule="evenodd"/>
        <path id="Caminho_23" data-name="Caminho 23" d="M145.57,101.724c12.35,0,21.765-8.717,21.765-19.581,0-10.167-9.414-18.883-21.765-18.883-11.6,0-21.031,8.717-21.031,18.883C124.54,93.007,133.973,101.724,145.57,101.724Z" transform="translate(104.006 52.83)" fill="#1a1a1a" stroke="#1d1d1b" stroke-miterlimit="22.93" stroke-width="1.19" fill-rule="evenodd"/>
        <path id="Caminho_24" data-name="Caminho 24" d="M141.827,86.554a9.084,9.084,0,1,0,0-18.149c-5.8,0-10.167,4.368-10.167,8.717a9.781,9.781,0,0,0,10.167,9.433Z" transform="translate(109.952 57.118)" fill="#1a1a1a" stroke="#1d1d1b" stroke-miterlimit="22.93" stroke-width="1.19" fill-rule="evenodd"/>
      </g>
    </g>
    <g id="peixe-2" data-name="peixe" transform="translate(5030.613 18196.98) rotate(90)">
      <g id="Layer_1-2" data-name="Layer 1" transform="translate(0 0)">
        <path id="Caminho_21-2" data-name="Caminho 21" d="M28.3,128.459,0,100.143c16.681-5.817,31.2,0,44.263,16.681,30.481-47.163,47.9-66.064,102.308-84.893,2.9-10.882,0-22.5-4.368-31.931,10.9,1.45,31.931,13.782,39.914,27.527,116.824,7.964,158.188,62.394,164.721,138.588l-47.163,9.414,43.492,10.937c-29.711,109.575-248.843,142.222-296.005-37-8.7,17.415-21.049,23.857-35.546,23.857Z" transform="translate(0 0)" fill="#1a1a1a" fill-rule="evenodd"/>
        <path id="Caminho_22-2" data-name="Caminho 22" d="M151.771,166.846c38.538,0,70.377-29.013,70.377-63.844S190.217,39.14,151.771,39.14C112.591,39.14,80.66,68.172,80.66,103s31.931,63.862,71.111,63.844Z" transform="translate(67.361 32.687)" fill="#1a1a1a" fill-rule="evenodd"/>
        <path id="Caminho_23-2" data-name="Caminho 23" d="M145.57,101.724c12.35,0,21.765-8.717,21.765-19.581,0-10.167-9.414-18.883-21.765-18.883-11.6,0-21.031,8.717-21.031,18.883C124.54,93.007,133.973,101.724,145.57,101.724Z" transform="translate(104.006 52.83)" fill="#1a1a1a" stroke="#1d1d1b" stroke-miterlimit="22.93" stroke-width="1.19" fill-rule="evenodd"/>
        <path id="Caminho_24-2" data-name="Caminho 24" d="M141.827,86.554a9.084,9.084,0,1,0,0-18.149c-5.8,0-10.167,4.368-10.167,8.717a9.781,9.781,0,0,0,10.167,9.433Z" transform="translate(109.952 57.118)" fill="#1a1a1a" stroke="#1d1d1b" stroke-miterlimit="22.93" stroke-width="1.19" fill-rule="evenodd"/>
      </g>
    </g>
  </g>
</svg>
