<svg xmlns="http://www.w3.org/2000/svg" width="284.999" height="1707.696" viewBox="0 0 284.999 1707.696">
  <g id="Camada_2" data-name="Camada 2" transform="translate(1673.952 1339.541) rotate(180)">
    <g id="Layer_1" data-name="Layer 1" transform="translate(1388.953 1339.541) rotate(-90)" opacity="0.05">
      <path id="Caminho_26" data-name="Caminho 26" d="M141.162.23V77.853a30.5,30.5,0,0,0-20.736,5.1c-5.1,3.438-6.875,12.087-8.538,22.178C108.45,144.719,94.7,170.556,68.862,185.97a116.322,116.322,0,0,1-60.213,12.2H0V120.545H1.663A35.928,35.928,0,0,0,27.5,113.781,35.706,35.706,0,0,0,36.15,87.944a166.334,166.334,0,0,1,6.875-43.025A48.237,48.237,0,0,1,58.55,20.745,85.163,85.163,0,0,1,118.763.119Z" transform="translate(0 85.831)" fill="#fff" fill-rule="evenodd"/>
      <path id="Caminho_27" data-name="Caminho 27" d="M74.105,0V75.737h34.376V153.36H74.105a53.56,53.56,0,0,0,8.539,33.267,33.267,33.267,0,0,0,25.837,8.649V272.9H99.942A92.925,92.925,0,0,1,53.48,260.812a79.064,79.064,0,0,1-36.15-30.938,127.855,127.855,0,0,1-17.3-67.088V0Z" transform="translate(156.545 12.098)" fill="#fff" fill-rule="evenodd"/>
      <path id="Caminho_28" data-name="Caminho 28" d="M0,0H74.074V110.113c0,12.087,3.438,17.188,13.75,17.188,8.538,0,13.75-5.1,13.75-17.188V0h74.074V108.45a88.711,88.711,0,0,1-25.837,65.314A84.387,84.387,0,0,1,87.935,199.6a84.387,84.387,0,0,1-68.862-30.938C5.323,153.138.111,130.738.111,103.238V0Z" transform="translate(301.175 84.398)" fill="#fff" fill-rule="evenodd"/>
      <path id="Caminho_29" data-name="Caminho 29" d="M132.55,0h73.963V163.562a112.22,112.22,0,0,1-24.063,73.963,106.343,106.343,0,0,1-34.486,25.837A100.577,100.577,0,0,1,30.975,242.737a93.813,93.813,0,0,1-30.938-72.3,99.024,99.024,0,0,1,30.938-72.3A97.36,97.36,0,0,1,101.5,68.862h18.962v82.613a27.279,27.279,0,0,0-17.188-8.538,31.271,31.271,0,0,0-20.625,8.538,29.94,29.94,0,0,0-6.875,20.736,24.84,24.84,0,0,0,8.538,20.515,25.948,25.948,0,0,0,18.962,6.986c18.962,0,29.275-12.087,29.275-39.587Z" transform="translate(507.725 10.324)" fill="#fff" fill-rule="evenodd"/>
      <path id="Caminho_30" data-name="Caminho 30" d="M37.813.011a35.263,35.263,0,0,1,36.15,36.15A31.16,31.16,0,0,1,63.65,60.224a37.481,37.481,0,0,1-51.674,0A31.159,31.159,0,0,1,1.885,36.161,35.263,35.263,0,0,1,37.813.011Zm36.15,87.713V284H0V87.725Z" transform="translate(752.162)" fill="#fff" fill-rule="evenodd"/>
      <path id="Caminho_31" data-name="Caminho 31" d="M103.356,204.879a99.8,99.8,0,0,1-73.963-30.938,97.692,97.692,0,0,1-29.275-72.3,92.48,92.48,0,0,1,29.275-72.3A105.233,105.233,0,0,1,103.356.067v72.3a28.5,28.5,0,0,0-20.625,8.649,28.057,28.057,0,0,0-8.649,20.625,28.5,28.5,0,0,0,8.65,20.625,23.286,23.286,0,0,0,20.625,8.649h0ZM105.131.067a91.262,91.262,0,0,1,70.525,29.275,99.8,99.8,0,0,1,31.049,72.3,96.7,96.7,0,0,1-31.049,72.3,96.362,96.362,0,0,1-72.3,30.938h0V130.916a22.179,22.179,0,0,0,18.962-8.649,23.287,23.287,0,0,0,8.649-20.625,23.065,23.065,0,0,0-8.649-20.625,27.613,27.613,0,0,0-18.962-8.649V.067Z" transform="translate(858.719 79.12)" fill="#fff" fill-rule="evenodd"/>
      <path id="Caminho_32" data-name="Caminho 32" d="M87.314,170.574V104.706q22.178,0,22.178-17.3c0-10.534-5.766-15.746-17.3-15.746S74.672,78.868,74.672,93.838V257.955H.044V101.046A136.6,136.6,0,0,1,4.923,61.237,79.4,79.4,0,0,1,21.557,32.184,94.143,94.143,0,0,1,54.824,8.675,101.682,101.682,0,0,1,95.852.026a87.936,87.936,0,0,1,64.316,25.726,86.163,86.163,0,0,1,26.059,63.872,80.064,80.064,0,0,1-23.4,59.991c-14.194,14.194-35.706,21.18-64.316,21.18H87.425ZM351.452,104.04v56h-48.68a25.947,25.947,0,0,0-14.083,2.883,11.088,11.088,0,0,0-4.1,9.869c0,5.323,1.331,8.76,4.214,10.424a38.589,38.589,0,0,0,17.3,2.55h50.233v71.745H297.56a91.151,91.151,0,0,1-63.207-19.738,73.079,73.079,0,0,1-22.178-57.219V82.084a74.3,74.3,0,0,1,20.737-55.445A80.728,80.728,0,0,1,291.683,6.79h64.981V78.425H308.982c-12.863,0-19.3,4.214-19.3,12.531a11.089,11.089,0,0,0,4.546,10.2,33.269,33.269,0,0,0,16.412,2.883ZM568.906,6.79l-77.622,179.2h77.622v72.078H378.288L455.91,78.979H373.852V6.79Z" transform="translate(1138.79 26.488)" fill="#86bc25"/>
    </g>
  </g>
</svg>
