<svg xmlns="http://www.w3.org/2000/svg" width="48.968" height="55.264" viewBox="0 0 48.968 55.264">
  <g id="Grupo_61" data-name="Grupo 61" transform="translate(-215.5 -1395)">
    <g id="Grupo_38" data-name="Grupo 38" transform="translate(224.503 1403.791)">
      <g id="Grupo_37" data-name="Grupo 37" transform="translate(0)">
        <path id="Caminho_120" data-name="Caminho 120" d="M139.5,87.5A15.386,15.386,0,0,0,128.585,83h-.113a15.5,15.5,0,0,0-11.621,5.4,1.083,1.083,0,0,0,1.64,1.415,13.337,13.337,0,0,1,10-4.644h.1a13.326,13.326,0,0,1,9.689,22.475,15,15,0,0,0-4.124,9.374h-2.112V105.531h.686a2.856,2.856,0,0,0,2.853-2.852v-.145a2.853,2.853,0,0,0-5.705,0v.831h-2.6v-.831a2.856,2.856,0,0,0-2.852-2.852h-.183a2.856,2.856,0,0,0-2.852,2.852v.145a2.856,2.856,0,0,0,2.852,2.852h.87v11.482h-2.086a14.585,14.585,0,0,0-4.041-9.286,13.239,13.239,0,0,1-3.715-9.608,1.083,1.083,0,0,0-2.166-.059,15.389,15.389,0,0,0,4.32,11.169,12.47,12.47,0,0,1,3.464,8.7v3.135a4.514,4.514,0,0,0,4.009,4.48v.245a3.683,3.683,0,1,0,7.366,0v-.242a4.514,4.514,0,0,0,4.033-4.483v-3.134a12.8,12.8,0,0,1,3.561-8.8A15.493,15.493,0,0,0,139.5,87.5Zm-7.462,15.037a.686.686,0,0,1,1.372,0v.145a.687.687,0,0,1-.686.686h-.686Zm-4.766,3h2.6v11.482h-2.6Zm-3.036-2.166a.687.687,0,0,1-.686-.686v-.145a.687.687,0,0,1,.686-.686h.184a.687.687,0,0,1,.686.686v.831h-.87Zm5.852,22.423a1.517,1.517,0,1,1-3.033,0v-.217h3.033Zm4.033-4.725a2.344,2.344,0,0,1-2.342,2.342h-6.392a2.344,2.344,0,0,1-2.342-2.342v-1.883h11.075Z" transform="translate(-113.09 -82.998)" fill="#f2f2f2"/>
      </g>
    </g>
    <g id="Grupo_40" data-name="Grupo 40" transform="translate(238.9 1395)">
      <g id="Grupo_39" data-name="Grupo 39">
        <path id="Caminho_121" data-name="Caminho 121" d="M247.083,0A1.083,1.083,0,0,0,246,1.083V5.129a1.083,1.083,0,1,0,2.167,0V1.083A1.083,1.083,0,0,0,247.083,0Z" transform="translate(-246)" fill="#f2f2f2"/>
      </g>
    </g>
    <g id="Grupo_42" data-name="Grupo 42" transform="translate(258.256 1418.313)">
      <g id="Grupo_41" data-name="Grupo 41">
        <path id="Caminho_122" data-name="Caminho 122" d="M429.8,216.021h-4.045a1.083,1.083,0,0,0,0,2.167H429.8a1.083,1.083,0,0,0,0-2.167Z" transform="translate(-424.676 -216.021)" fill="#f2f2f2"/>
      </g>
    </g>
    <g id="Grupo_44" data-name="Grupo 44" transform="translate(215.5 1418.313)">
      <g id="Grupo_43" data-name="Grupo 43" transform="translate(0)">
        <path id="Caminho_123" data-name="Caminho 123" d="M35.109,216.021H31.063a1.083,1.083,0,0,0,0,2.167h4.045a1.083,1.083,0,0,0,0-2.167Z" transform="translate(-29.98 -216.021)" fill="#f2f2f2"/>
      </g>
    </g>
    <g id="Grupo_46" data-name="Grupo 46" transform="translate(222.354 1401.854)">
      <g id="Grupo_45" data-name="Grupo 45">
        <path id="Caminho_124" data-name="Caminho 124" d="M97.96,66.45l-2.86-2.86a1.083,1.083,0,0,0-1.532,1.532l2.86,2.86A1.083,1.083,0,0,0,97.96,66.45Z" transform="translate(-93.25 -63.272)" fill="#f2f2f2"/>
      </g>
    </g>
    <g id="Grupo_48" data-name="Grupo 48" transform="translate(252.587 1401.854)">
      <g id="Grupo_47" data-name="Grupo 47">
        <path id="Caminho_125" data-name="Caminho 125" d="M377.055,63.588a1.084,1.084,0,0,0-1.532,0l-2.86,2.86a1.083,1.083,0,1,0,1.532,1.532l2.86-2.86A1.083,1.083,0,0,0,377.055,63.588Z" transform="translate(-372.345 -63.271)" fill="#f2f2f2"/>
      </g>
    </g>
    <g id="Grupo_50" data-name="Grupo 50" transform="translate(238.809 1408.476)">
      <g id="Grupo_49" data-name="Grupo 49" transform="translate(0)">
        <path id="Caminho_126" data-name="Caminho 126" d="M256.469,131.789a10.953,10.953,0,0,0-10.161-6.861h-.079a1.083,1.083,0,0,0,.007,2.167h.072a8.74,8.74,0,0,1,8.151,5.5,1.083,1.083,0,1,0,2.009-.81Z" transform="translate(-245.154 -124.928)" fill="#f2f2f2"/>
      </g>
    </g>
    <g id="Grupo_52" data-name="Grupo 52" transform="translate(248.749 1418.313)">
      <g id="Grupo_51" data-name="Grupo 51" transform="translate(0)">
        <path id="Caminho_127" data-name="Caminho 127" d="M338.757,216.338a1.085,1.085,0,1,0,.316.766A1.091,1.091,0,0,0,338.757,216.338Z" transform="translate(-336.908 -216.02)" fill="#f2f2f2"/>
      </g>
    </g>
    <g id="Grupo_54" data-name="Grupo 54" transform="translate(225.631 1412.754)">
      <g id="Grupo_53" data-name="Grupo 53">
        <path id="Caminho_128" data-name="Caminho 128" d="M125.352,164.828a1.084,1.084,0,1,0,.317.767A1.09,1.09,0,0,0,125.352,164.828Z" transform="translate(-123.503 -164.512)" fill="#f2f2f2"/>
      </g>
    </g>
  </g>
</svg>
