<?xml version="1.0" encoding="UTF-8"?><svg id="Camada_2" xmlns="http://www.w3.org/2000/svg" viewBox="0 0 445.44 452.12"><defs><style>.cls-1{stroke:#707070;}.cls-1,.cls-2,.cls-3,.cls-4,.cls-5,.cls-6,.cls-7{stroke-linecap:round;stroke-linejoin:round;}.cls-1,.cls-3,.cls-8,.cls-5{fill:none;}.cls-2{fill:#c6ff00;}.cls-2,.cls-4,.cls-8,.cls-5,.cls-6,.cls-7{stroke:#263238;}.cls-9{fill:#9de500;}.cls-3{stroke:#fff;}.cls-4{fill:#fff;}.cls-8{stroke-miterlimit:10;}.cls-6,.cls-10{fill:#263238;}.cls-7{fill:#7d7d7d;}.cls-11{fill:#f2f2f2;}</style></defs><g id="Background_Simple"><path class="cls-11" d="m139.61,26.04S63.85,64.65,26.06,124.14c-37.79,59.49-34.8,135.95,11.12,192.78,45.92,56.83,133.69,49.34,207.18,85.32,73.48,35.98,154.58,28.58,189.32-47.66,34.75-76.24-17.65-104.72-26.65-192.93-9.01-88.22-88.53-217.4-267.41-135.6Z"/></g><g id="Question_Marks_2"><path class="cls-10" d="m334.1,227.74v-3.35c0-17.25,21.84-17.99,21.84-30.28,0-5.34-4.34-8.81-10.8-8.81-7.07,0-11.54,3.85-11.54,9.31v1.36c0,1.37-.74,1.99-2.11,1.99l-13.28-.5c-1.24,0-2.11-.62-2.11-1.49v-1.36c0-15.01,11.91-25.31,29.41-25.31s28.17,9.68,28.17,24.2c0,20.6-22.21,20.72-22.21,32.01v2.23c0,1.37-.74,2.11-2.11,2.11h-13.15c-1.36,0-2.11-.74-2.11-2.11Zm-1.12,19.98c0-5.46,4.84-9.93,10.67-9.93s10.55,4.47,10.55,9.93-4.96,9.93-10.67,9.93-10.55-4.47-10.55-9.93Z"/><path class="cls-9" d="m102.46,190.33v-2.91c0-14.98,18.97-15.63,18.97-26.3,0-4.63-3.77-7.65-9.38-7.65-6.14,0-10.02,3.34-10.02,8.08v1.19c0,1.19-.65,1.72-1.83,1.72l-11.53-.43c-1.08,0-1.83-.54-1.83-1.29v-1.19c0-13.04,10.35-21.99,25.54-21.99s24.47,8.41,24.47,21.02c0,17.89-19.29,18-19.29,27.81v1.94c0,1.19-.65,1.83-1.83,1.83h-11.42c-1.18,0-1.83-.65-1.83-1.83Zm-.97,17.35c0-4.74,4.2-8.62,9.27-8.62s9.16,3.88,9.16,8.62-4.31,8.62-9.27,8.62-9.16-3.88-9.16-8.62Z"/><path class="cls-9" d="m270.25,60.88v-1.47c0-7.57,9.58-7.9,9.58-13.29,0-2.34-1.91-3.87-4.74-3.87-3.1,0-5.06,1.69-5.06,4.08v.6c0,.6-.33.87-.93.87l-5.83-.22c-.54,0-.93-.27-.93-.65v-.6c0-6.59,5.23-11.11,12.91-11.11s12.36,4.25,12.36,10.62c0,9.04-9.75,9.09-9.75,14.05v.98c0,.6-.33.93-.93.93h-5.77c-.6,0-.93-.33-.93-.93Zm-.49,8.77c0-2.4,2.12-4.36,4.68-4.36s4.63,1.96,4.63,4.36-2.18,4.36-4.68,4.36-4.63-1.96-4.63-4.36Z"/><path class="cls-8" d="m88.35,289.72v-1.85c0-9.54,12.08-9.95,12.08-16.75,0-2.95-2.4-4.87-5.97-4.87-3.91,0-6.38,2.13-6.38,5.15v.75c0,.75-.41,1.1-1.17,1.1l-7.34-.27c-.69,0-1.17-.34-1.17-.82v-.75c0-8.3,6.59-14,16.27-14s15.58,5.35,15.58,13.38c0,11.39-12.28,11.46-12.28,17.71v1.24c0,.76-.41,1.17-1.17,1.17h-7.27c-.75,0-1.17-.41-1.17-1.17Zm-.62,11.05c0-3.02,2.68-5.49,5.9-5.49s5.83,2.47,5.83,5.49-2.75,5.49-5.9,5.49-5.83-2.47-5.83-5.49Z"/><path class="cls-10" d="m131.4,80.51v-1.27c0-6.56,8.31-6.84,8.31-11.52,0-2.03-1.65-3.35-4.11-3.35-2.69,0-4.39,1.46-4.39,3.54v.52c0,.52-.28.76-.8.76l-5.05-.19c-.47,0-.8-.24-.8-.57v-.52c0-5.71,4.53-9.63,11.19-9.63s10.72,3.68,10.72,9.2c0,7.84-8.45,7.88-8.45,12.18v.85c0,.52-.28.8-.8.8h-5c-.52,0-.8-.28-.8-.8Zm-.42,7.6c0-2.08,1.84-3.78,4.06-3.78s4.01,1.7,4.01,3.78-1.89,3.78-4.06,3.78-4.01-1.7-4.01-3.78Z"/><path class="cls-8" d="m279.44,354.66v-1.27c0-6.56,8.31-6.84,8.31-11.52,0-2.03-1.65-3.35-4.11-3.35-2.69,0-4.39,1.46-4.39,3.54v.52c0,.52-.28.76-.8.76l-5.05-.19c-.47,0-.8-.24-.8-.57v-.52c0-5.71,4.53-9.63,11.19-9.63s10.72,3.68,10.72,9.2c0,7.84-8.45,7.88-8.45,12.18v.85c0,.52-.28.8-.8.8h-5c-.52,0-.8-.28-.8-.8Zm-.42,7.6c0-2.08,1.84-3.78,4.06-3.78s4.01,1.7,4.01,3.78-1.89,3.78-4.06,3.78-4.01-1.7-4.01-3.78Z"/></g><g id="Question_Mark_1"><path class="cls-10" d="m248.38,384.34c-.06-.17-.12-.35-.18-.52-.06-.18-.12-.35-.18-.52-.06-.18-.12-.35-.18-.52-.06-.17-.12-.35-.18-.52-.06-.18-.12-.35-.18-.52-.06-.17-.12-.35-.18-.52-.06-.18-.12-.35-.18-.52-.06-.18-.12-.35-.18-.52-.06-.17-.12-.35-.18-.52-.06-.18-.12-.35-.18-.52-.06-.17-.12-.35-.18-.52-.06-.18-.12-.35-.18-.52-.06-.17-.12-.35-.18-.52-.06-.18-.12-.35-.18-.52-.06-.18-.12-.35-.18-.52-.06-.17-.12-.35-.18-.52-.06-.18-.12-.35-.18-.52-.06-.18-.12-.35-.18-.52-.06-.17-.12-.35-.18-.52-2.68-8.15-10.97-14.14-20.09-14.14s-16.52,5.15-19.69,12.4c-.08.17-.15.33-.23.5-.08.17-.15.34-.23.5-.08.17-.15.33-.23.5-.08.17-.15.33-.23.5-.08.17-.15.33-.23.5-.08.17-.15.33-.23.5-.08.17-.15.33-.23.5-.08.17-.15.33-.23.5-.08.17-.15.33-.23.5-.08.17-.15.34-.23.5-.08.17-.15.33-.23.5-.08.17-.15.34-.23.5-.08.17-.15.33-.23.5-.08.17-.15.33-.23.5-.08.17-.15.33-.23.5-.08.17-.15.33-.23.5-.08.17-.15.33-.23.5-.08.17-.15.34-.23.5-.08.17-.15.33-.23.5-.08.17-.15.33-.23.5-1.38,2.93-2.15,6.15-2.15,9.53,0,13.23,11.43,24.05,25.56,24.05s25.86-10.82,25.86-24.05c0-2.59-.47-5.08-1.31-7.42-.06-.17-.12-.35-.18-.52Z"/><path class="cls-10" d="m228.83,202.26c-42.39,0-71.26,24.96-71.26,61.34v3.31c0,1.1.58,2.04,1.56,2.68.17.17.37.32.58.46.17.17.37.32.58.46.17.17.37.32.58.46.17.17.37.32.58.46.17.17.37.32.58.46.17.17.37.32.58.46.17.17.37.32.58.46.17.17.37.32.58.46.17.17.37.32.58.46.18.18.39.34.63.49.16.15.34.3.54.42.17.17.36.32.58.46.17.17.36.32.58.46.17.17.36.32.58.46.17.17.36.32.58.46.17.17.36.32.58.46.17.17.36.32.58.46.17.17.36.32.58.46.17.17.36.32.58.46.17.17.36.32.58.46.73.74,1.95,1.2,3.45,1.2l26.44.99c2.72,0,4.2-1.24,4.2-3.95v-2.72c0-10.87,8.89-18.53,22.98-18.53,12.85,0,21.49,6.92,21.49,17.54,0,1.26-.12,2.46-.34,3.61-13.27,17.39-47.8,25.06-47.8,58.82v8.12c0,3.31,1.8,5.11,5.11,5.11h31.87c3.31,0,5.11-1.8,5.11-5.11v-5.41c0-27.36,53.82-27.66,53.82-77.57,0-35.18-26.76-58.63-68.25-58.63Z"/><path class="cls-9" d="m201.16,343.88v-8.12c0-41.79,52.92-43.6,52.92-73.36,0-12.93-10.52-21.35-26.16-21.35-17.14,0-27.96,9.32-27.96,22.55v3.31c0,3.31-1.8,4.81-5.11,4.81l-32.17-1.2c-3.01,0-5.11-1.5-5.11-3.61v-3.31c0-36.38,28.86-61.34,71.26-61.34s68.25,23.45,68.25,58.63c0,49.91-53.82,50.21-53.82,77.57v5.41c0,3.31-1.8,5.11-5.11,5.11h-31.87c-3.31,0-5.11-1.8-5.11-5.11Zm-2.71,48.41c0-13.23,11.73-24.05,25.86-24.05s25.56,10.82,25.56,24.05-12.03,24.05-25.86,24.05-25.56-10.82-25.56-24.05Z"/><ellipse class="cls-10" cx="226.04" cy="439.91" rx="54.61" ry="12.21"/></g><g id="Character"><path class="cls-4" d="m188.39,205.59l-1.72,3.75s-9.98,1.07-9.98,1.82.11,5.9.64,6.11c.54.21.86.11,1.29,0s14.7-3.75,14.7-3.75l1.39-6.65-6.33-1.29Z"/><path class="cls-4" d="m185.59,212.3s-3.49,2.84-5.87,3.91c-2.38,1.07-2.45,2.69-1.71,2.69s7.46-2.81,7.46-2.81c0,0,6.09-1.6,6.97-2.08.88-.48.98-3.18.98-3.18"/><polygon class="cls-7" points="197.17 133.57 191.04 180.57 186.77 206.03 196.24 208.26 203.3 178.16 206.65 159.21 197.17 133.57"/><polygon class="cls-4" points="246.66 99.54 242.91 98.95 235.26 96.04 234.98 105.15 246.86 106.24 246.66 99.54"/><path class="cls-7" d="m202.93,266.22s-4.64,5.39-7.8,10.22c-3.16,4.83-2.04,10.03,1.86,11.33s8.92-2.23,10.22-5.02c1.3-2.79.93-4.27,2.97-7.06,2.04-2.79,3.72-5.57,2.97-9.29s-8.17-2.79-10.22-.19Z"/><path class="cls-4" d="m206.82,283.42c-.26-.56-.56-1.15-.92-1.78-2.98-5.25-8.19-4.83-11.53-3.85-2.16,4.41-.93,8.8,2.61,9.99,3.6,1.2,8.13-1.7,9.84-4.35Z"/><path class="cls-4" d="m205.9,281.64c-1.11,1.67-2.6,6.13-8.36,4.27-2.26-.73-3.49-1.69-4.15-2.59.35,2.11,1.61,3.78,3.59,4.44,3.9,1.3,8.92-2.23,10.22-5.02,1.3-2.79.93-4.27,2.97-7.06,2.04-2.79,3.72-5.57,2.97-9.29,0,4.46-1.67,5.2-3.72,7.62-2.04,2.42-2.42,5.95-3.53,7.62Z"/><path class="cls-7" d="m257.76,266.22s4.64,5.39,7.8,10.22c3.16,4.83,2.04,10.03-1.86,11.33s-8.92-2.23-10.22-5.02c-1.3-2.79-.93-4.27-2.97-7.06-2.04-2.79-3.72-5.57-2.97-9.29s8.17-2.79,10.22-.19Z"/><path class="cls-4" d="m253.86,283.42c.26-.56.56-1.15.92-1.78,2.98-5.25,8.19-4.83,11.53-3.85,2.16,4.41.93,8.8-2.61,9.99-3.6,1.2-8.13-1.7-9.84-4.35Z"/><path class="cls-4" d="m254.78,281.64c1.11,1.67,2.6,6.13,8.36,4.27,2.26-.73,3.49-1.69,4.15-2.59-.35,2.11-1.61,3.78-3.59,4.44-3.9,1.3-8.92-2.23-10.22-5.02-1.3-2.79-.93-4.27-2.97-7.06-2.04-2.79-3.72-5.57-2.97-9.29,0,4.46,1.67,5.2,3.72,7.62,2.04,2.42,2.42,5.95,3.53,7.62Z"/><path class="cls-6" d="m266.47,202.13c0-3.34-5.76-7.06-5.76-7.06-8.67-8.82-24.32-7.66-30.1-6.86-5.78-.79-21.42-1.96-30.1,6.86,0,0-5.76,3.72-5.76,7.06s7.25,63.72,7.25,63.72c0,0-.19,3.16,5.02,3.53,5.2.37,7.43-2.6,7.43-2.6l2.04-51.09s8.36-5.95,9.85-6.13c.55-.07,1.25-.19,2.04-.28v.1c.74-.17,1.49-.23,2.23-.23.74,0,1.49.06,2.23.23v-.1c.79.1,1.49.21,2.04.28,1.49.19,9.85,6.13,9.85,6.13l2.04,51.09s2.23,2.97,7.43,2.6c5.2-.37,5.02-3.53,5.02-3.53,0,0,7.25-60.38,7.25-63.72Z"/><path class="cls-1" d="m244.73,215.69s-1.11-12.26,4.27-16.91"/><path class="cls-1" d="m216.49,215.69s.56-10.22-.56-13.93c-1.11-3.72-2.97-5.2-2.97-5.2"/><path class="cls-1" d="m223.37,191.35s5.95,6.87,7.06,12.63"/><path class="cls-1" d="m236.37,191.72s-3.34,3.72-3.72,6.5"/><path class="cls-2" d="m228.01,119.45s-5.39-.74-7.25,1.11-8.17,8.73-8.17,8.73l3.34,59.08s7.62,2.97,14.12,2.97,13.93-2.42,15.61-3.72c1.67-1.3.19-64.65.19-64.65,0,0-13.75-4.09-17.84-3.53Z"/><path class="cls-7" d="m237.86,120.75s4.83-.74,8.55-.74,7.43.19,7.43.19l9.29-8.92-18.76-4.27,1.49-8.55s13.75-.93,20.62.37c6.87,1.3,17.65,4.64,18.21,4.64s1.3,2.04.74,3.53-18.02,20.81-23.22,25.82c-5.2,5.02-9.66,10.59-9.66,10.59l-2.42,41.43s6.13,3.34,7.25,4.46c1.11,1.11,2.42,5.57,2.42,5.57,0,0-11.33-4.64-14.31-5.02-2.97-.37-4.83-.56-5.39-1.67s-5.2-50.72-5.2-50.72l.19-15.79s0-.93,2.79-.93Z"/><polygon class="cls-5" points="249.01 146.2 238.97 147.51 239.9 151.22 244.92 152.52 249.75 150.29 249.01 146.2"/><polyline class="cls-5" points="254.77 123.91 252.54 143.42 258.3 126.88"/><path class="cls-5" d="m263.13,111.28s4.64.93,11.7-1.86"/><path class="cls-5" d="m267.96,112.58s4.83.19,9.1-.74"/><path class="cls-4" d="m221.7,119.27l.93,13.56s2.6,3.72,7.25,3.53,5.2-3.53,5.2-3.53v-11.15l-13.38-2.42Z"/><path class="cls-7" d="m235.26,126.33l-.37,11.15,3.9-6.13s4.27,5.39,5.39,5.2-.74-2.42-1.11-4.46c-.37-2.04-3.53-9.29-3.9-11.33-.37-2.04-3.9-2.42-4.09-1.49s0,2.42,0,2.42l.19,4.64Z"/><path class="cls-7" d="m222.44,136.36s.74,52.02-1.11,52.58c-1.86.56-9.29.74-13.93,2.97-4.64,2.23-6.87,3.16-6.87,3.16,0,0,2.23-5.39,4.83-7.8,2.6-2.42,5.76-3.9,5.76-3.9l-4.83-24.9s-8.92-23.59-9.1-24.9,16.91-10.96,20.44-12.63c3.53-1.67,4.46-.19,4.46-.19l.37,15.61Z"/><path class="cls-7" d="m217.79,118.34s-4.46,14.12-4.83,15.98,0,1.86,1.3.56c1.3-1.3,4.64-4.46,4.64-4.46l3.53,5.95-.19-10.96v-6.32s-.19-2.6-4.46-.74Z"/><polygon class="cls-5" points="209.06 148.81 220.02 148.81 219.84 153.26 215.01 154.94 208.88 153.26 209.06 148.81"/><path class="cls-4" d="m239.16,99.94s2.6,11.33,3.16,13.19-2.97,9.1-4.09,10.78-2.79,2.6-4.09,2.6-8.36-2.42-10.03-3.53c-1.67-1.11-3.34-2.42-3.34-2.42,0,0-2.6,1.3-4.83-.74-2.23-2.04-5.2-4.46-4.46-6.13s2.23-2.6,4.27-2.6,1.3-.19,1.3-.19c0,0-3.72-5.39-3.72-9.66s7.99-7.43,12.63-7.43,9.29,2.23,9.29,2.23l3.9,3.9Z"/><polyline class="cls-5" points="232.66 104.22 236 110.53 232.66 112.76 231.17 110.91"/><path class="cls-5" d="m238.79,109.98s.19,1.49-2.04,3.9"/><path class="cls-10" d="m229.13,106.54c0,.87-.37,1.58-.84,1.58s-.84-.71-.84-1.58.37-1.58.84-1.58.84.71.84,1.58Z"/><ellipse class="cls-10" cx="234.98" cy="103.57" rx=".84" ry="1.58"/><path class="cls-6" d="m219.09,90.28s-11.7,4.27-12.08,9.66,10.4,12.82,10.96,13.75,2.23-1.11,2.23-1.11c0,0-1.3-1.67-.74-3.53.56-1.86,2.97-4.09,2.97-5.02s-2.79.74-2.79-2.04,6.87-4.46,10.96-4.27c4.09.19,7.62,7.06,10.59,3.72,2.97-3.34-1.3-4.27-1.3-4.27,0,0,5.76-.74,5.76-3.72s-2.97-5.02-4.27-5.02-4.83,2.23-4.83-.19,3.53-3.53.19-7.43c-3.34-3.9-7.62,0-7.62,1.49s-1.11,4.27-1.86,4.27-2.97-3.34-5.57-1.49c-2.6,1.86-2.6,5.2-2.6,5.2Z"/><line class="cls-5" x1="223.92" y1="104.59" x2="229.87" y2="102.36"/><path class="cls-5" d="m230.8,99.76s-.21-.74.27-1.71"/><path class="cls-3" d="m231.06,98.05c.42-.85,1.37-1.88,3.45-2.75"/></g></svg>