<svg xmlns="http://www.w3.org/2000/svg" width="299.812" height="71" viewBox="0 0 299.812 71">
  <g id="logo_footer" transform="translate(268 228)">
    <g id="Camada_2" data-name="Camada 2" transform="translate(31.812 -209.453) rotate(90)">
      <g id="Layer_1" data-name="Layer 1" transform="translate(0 202.624) rotate(-90)">
        <path id="Caminho_26" data-name="Caminho 26" d="M16.749.027v9.21a3.618,3.618,0,0,0-2.46.605c-.605.408-.816,1.434-1.013,2.631-.408,4.7-2.039,7.763-5.105,9.592a13.8,13.8,0,0,1-7.144,1.447H0V14.3H.2a4.263,4.263,0,0,0,3.066-.8,4.237,4.237,0,0,0,1.026-3.066A19.736,19.736,0,0,1,5.105,5.33,5.723,5.723,0,0,1,6.947,2.461,10.1,10.1,0,0,1,14.092.014Z" transform="translate(0 10.184)" fill="#fff" fill-rule="evenodd"/>
        <path id="Caminho_27" data-name="Caminho 27" d="M8.793,0V8.987h4.079V18.2H8.793a6.355,6.355,0,0,0,1.013,3.947,3.947,3.947,0,0,0,3.066,1.026v9.21H11.859a11.026,11.026,0,0,1-5.513-1.434,9.381,9.381,0,0,1-4.289-3.671A15.171,15.171,0,0,1,0,19.315V0Z" transform="translate(18.575 1.436)" fill="#fff" fill-rule="evenodd"/>
        <path id="Caminho_28" data-name="Caminho 28" d="M0,0H8.789V13.065c0,1.434.408,2.039,1.632,2.039,1.013,0,1.632-.605,1.632-2.039V0h8.789V12.868a10.526,10.526,0,0,1-3.066,7.75,10.013,10.013,0,0,1-7.342,3.066,10.013,10.013,0,0,1-8.171-3.671C.632,18.17.013,15.513.013,12.25V0Z" transform="translate(35.736 10.014)" fill="#fff" fill-rule="evenodd"/>
        <path id="Caminho_29" data-name="Caminho 29" d="M15.728,0H24.5V19.407a13.315,13.315,0,0,1-2.855,8.776,12.618,12.618,0,0,1-4.092,3.066A11.934,11.934,0,0,1,3.675,28.8,11.131,11.131,0,0,1,0,20.223a11.75,11.75,0,0,1,3.671-8.579,11.552,11.552,0,0,1,8.368-3.474h2.25v9.8a3.237,3.237,0,0,0-2.039-1.013,3.71,3.71,0,0,0-2.447,1.013,3.552,3.552,0,0,0-.816,2.46A2.947,2.947,0,0,0,10,22.868a3.079,3.079,0,0,0,2.25.829c2.25,0,3.474-1.434,3.474-4.7Z" transform="translate(60.243 1.225)" fill="#fff" fill-rule="evenodd"/>
        <path id="Caminho_30" data-name="Caminho 30" d="M4.487,0A4.184,4.184,0,0,1,8.776,4.291,3.7,3.7,0,0,1,7.552,7.146a4.447,4.447,0,0,1-6.131,0,3.7,3.7,0,0,1-1.2-2.855A4.184,4.184,0,0,1,4.487,0ZM8.776,10.409V33.7H0V10.409Z" transform="translate(89.247 0)" fill="#fff" fill-rule="evenodd"/>
        <path id="Caminho_31" data-name="Caminho 31" d="M12.264,24.31a11.842,11.842,0,0,1-8.776-3.671A11.591,11.591,0,0,1,.014,12.06,10.973,10.973,0,0,1,3.488,3.481,12.486,12.486,0,0,1,12.264.008V8.587A3.381,3.381,0,0,0,9.816,9.613,3.329,3.329,0,0,0,8.79,12.06a3.381,3.381,0,0,0,1.026,2.447,2.763,2.763,0,0,0,2.447,1.026h0Zm.211-24.3a10.829,10.829,0,0,1,8.368,3.474,11.841,11.841,0,0,1,3.684,8.579,11.473,11.473,0,0,1-3.684,8.579,11.434,11.434,0,0,1-8.579,3.671h0V15.534a2.632,2.632,0,0,0,2.25-1.026A2.763,2.763,0,0,0,15.54,12.06a2.737,2.737,0,0,0-1.026-2.447,3.276,3.276,0,0,0-2.25-1.026V.008Z" transform="translate(101.89 9.388)" fill="#fff" fill-rule="evenodd"/>
        <path id="Caminho_32" data-name="Caminho 32" d="M10.36,20.239V12.424q2.631,0,2.631-2.053c0-1.25-.684-1.868-2.053-1.868S8.86,9.358,8.86,11.134V30.607H.005V11.99A16.209,16.209,0,0,1,.584,7.266,9.421,9.421,0,0,1,2.558,3.819,11.17,11.17,0,0,1,6.505,1.029,12.065,12.065,0,0,1,11.373,0,10.434,10.434,0,0,1,19,3.056,10.224,10.224,0,0,1,22.1,10.634a9.5,9.5,0,0,1-2.776,7.118c-1.684,1.684-4.237,2.513-7.631,2.513H10.373ZM41.7,12.345v6.644H35.925a3.079,3.079,0,0,0-1.671.342,1.316,1.316,0,0,0-.487,1.171c0,.632.158,1.039.5,1.237a4.579,4.579,0,0,0,2.052.3h5.96v8.513H35.307a10.815,10.815,0,0,1-7.5-2.342,8.671,8.671,0,0,1-2.632-6.789V9.74a8.815,8.815,0,0,1,2.46-6.579A9.579,9.579,0,0,1,34.609.806h7.71v8.5H36.662c-1.526,0-2.289.5-2.289,1.487A1.316,1.316,0,0,0,34.912,12a3.947,3.947,0,0,0,1.947.342ZM67.5.806l-9.21,21.262H67.5V30.62H44.885L54.1,9.371H44.359V.806Z" transform="translate(135.122 3.143)" fill="#86bc25"/>
      </g>
    </g>
    <g id="logo_inferior_maior" transform="translate(-268 -228)">
      <g id="Layer_1-2" data-name="Layer 1">
        <path id="Caminho_21" data-name="Caminho 21" d="M7.279,33.013,0,25.736c4.291-1.5,8.025,0,11.386,4.287C19.227,17.9,23.707,13.045,37.7,8.206A12.374,12.374,0,0,0,36.58,0c2.8.373,8.214,3.542,10.267,7.074C76.9,9.121,87.54,23.109,89.22,42.69L77.088,45.11l11.188,2.811c-7.643,28.16-64.012,36.55-76.144-9.508-2.238,4.476-5.415,6.131-9.144,6.131Z" transform="translate(0 0)" fill="#86bc25" fill-rule="evenodd"/>
        <path id="Caminho_22" data-name="Caminho 22" d="M98.965,72.013c9.92,0,18.116-7.468,18.116-16.434S108.861,39.14,98.965,39.14c-10.085,0-18.3,7.473-18.3,16.439S88.879,72.018,98.965,72.013Z" transform="translate(-42.601 -20.707)" fill="#fff" fill-rule="evenodd"/>
        <path id="Caminho_23" data-name="Caminho 23" d="M129.953,73.161c3.179,0,5.6-2.244,5.6-5.04,0-2.617-2.423-4.861-5.6-4.861a4.97,4.97,0,1,0,0,9.9Z" transform="translate(-65.755 -33.434)" fill="#1d1d1b" fill-rule="evenodd"/>
        <path id="Caminho_24" data-name="Caminho 24" d="M134.277,73.069a2.338,2.338,0,1,0,0-4.672,2.342,2.342,0,1,0,0,4.672Z" transform="translate(-69.51 -36.143)" fill="#fff" fill-rule="evenodd"/>
      </g>
    </g>
  </g>
</svg>
