<svg xmlns="http://www.w3.org/2000/svg" width="42" height="26.214" viewBox="0 0 42 26.214">
  <g id="Grupo_99" data-name="Grupo 99" transform="translate(-36 -24)">
    <g id="logo" transform="translate(46.055 24)">
      <g id="Layer_1" data-name="Layer 1" transform="translate(0 0)">
        <path id="Caminho_21" data-name="Caminho 21" d="M1.783,8.1,0,6.316A2.36,2.36,0,0,1,2.79,7.368C4.711,4.393,5.808,3.2,9.238,2.014A3.041,3.041,0,0,0,8.962,0a4.312,4.312,0,0,1,2.516,1.736c7.363.5,9.97,3.935,10.381,8.74l-2.972.594,2.741.69C19.755,18.67,5.945,20.729,2.972,9.427a2.372,2.372,0,0,1-2.24,1.5Z" transform="translate(0 0)" fill="#86bc25" fill-rule="evenodd"/>
        <path id="Caminho_22" data-name="Caminho 22" d="M85.145,47.194a4.279,4.279,0,0,0,4.438-4.026,4.485,4.485,0,0,0-8.923,0A4.3,4.3,0,0,0,85.145,47.194Z" transform="translate(-71.335 -34.61)" fill="#fff" fill-rule="evenodd"/>
        <path id="Caminho_23" data-name="Caminho 23" d="M125.866,65.686a1.222,1.222,0,1,0,0-2.426,1.218,1.218,0,1,0,0,2.426Z" transform="translate(-110.137 -55.939)" fill="#1d1d1b" fill-rule="evenodd"/>
        <path id="Caminho_24" data-name="Caminho 24" d="M132.3,69.54a.573.573,0,1,0,0-1.145.574.574,0,1,0,0,1.145Z" transform="translate(-116.433 -60.479)" fill="#fff" fill-rule="evenodd"/>
      </g>
    </g>
    <g id="Camada_2" data-name="Camada 2" transform="translate(36 43.204)">
      <g id="Layer_1-2" data-name="Layer 1" transform="translate(0 0)">
        <path id="Caminho_26" data-name="Caminho 26" d="M3.472,7.745V9.654a.75.75,0,0,0-.51.125c-.125.085-.169.3-.21.545a2.337,2.337,0,0,1-1.058,1.988,2.861,2.861,0,0,1-1.481.3H0V10.7H.041a.884.884,0,0,0,.635-.166A.878.878,0,0,0,.889,9.9a4.091,4.091,0,0,1,.169-1.058,1.186,1.186,0,0,1,.382-.595,2.1,2.1,0,0,1,1.481-.507Z" transform="translate(0 -5.628)" fill="#fff" fill-rule="evenodd"/>
        <path id="Caminho_27" data-name="Caminho 27" d="M15.94,1.09V2.953h.845V4.862H15.94a1.317,1.317,0,0,0,.21.818.818.818,0,0,0,.635.213V7.8h-.21a2.285,2.285,0,0,1-1.143-.3,1.945,1.945,0,0,1-.889-.761,3.145,3.145,0,0,1-.425-1.65v-4Z" transform="translate(-10.267 -0.792)" fill="#fff" fill-rule="evenodd"/>
        <path id="Caminho_28" data-name="Caminho 28" d="M27.16,7.61h1.822v2.708c0,.3.085.423.338.423.21,0,.338-.125.338-.423V7.61H31.48v2.667a2.182,2.182,0,0,1-.635,1.606,2.205,2.205,0,0,1-3.215-.125,2.361,2.361,0,0,1-.466-1.609V7.61Z" transform="translate(-19.753 -5.534)" fill="#fff" fill-rule="evenodd"/>
        <path id="Caminho_29" data-name="Caminho 29" d="M49.047.93h1.819V4.953a2.76,2.76,0,0,1-.592,1.819,2.615,2.615,0,0,1-.848.635A2.474,2.474,0,0,1,46.548,6.9a2.307,2.307,0,0,1-.761-1.778,2.435,2.435,0,0,1,.761-1.778,2.4,2.4,0,0,1,1.735-.72h.466V4.655a.671.671,0,0,0-.423-.21.769.769,0,0,0-.507.21.736.736,0,0,0-.169.51.611.611,0,0,0,.21.5.638.638,0,0,0,.466.172c.466,0,.72-.3.72-.974Z" transform="translate(-33.299 -0.676)" fill="#fff" fill-rule="evenodd"/>
        <path id="Caminho_30" data-name="Caminho 30" d="M68.76,0a.867.867,0,0,1,.889.889.766.766,0,0,1-.254.592.922.922,0,0,1-1.271,0,.766.766,0,0,1-.248-.592A.867.867,0,0,1,68.76,0Zm.889,2.157V6.984H67.83V2.157Z" transform="translate(-49.331 0.001)" fill="#fff" fill-rule="evenodd"/>
        <path id="Caminho_31" data-name="Caminho 31" d="M79.981,12.173a2.455,2.455,0,0,1-1.819-.761,2.4,2.4,0,0,1-.72-1.778,2.275,2.275,0,0,1,.72-1.778,2.588,2.588,0,0,1,1.819-.72V8.914a.7.7,0,0,0-.507.213.69.69,0,0,0-.213.507.7.7,0,0,0,.213.507.573.573,0,0,0,.507.213h0v1.819Zm.044-5.037a2.245,2.245,0,0,1,1.735.72,2.454,2.454,0,0,1,.764,1.778,2.378,2.378,0,0,1-.764,1.778,2.37,2.37,0,0,1-1.778.761h0V10.354a.545.545,0,0,0,.466-.213.573.573,0,0,0,.213-.507.567.567,0,0,0-.213-.507.679.679,0,0,0-.466-.213V7.136Z" transform="translate(-56.32 -5.188)" fill="#fff" fill-rule="evenodd"/>
        <path id="Caminho_32" data-name="Caminho 32" d="M104.843,6.583V4.963q.545,0,.545-.425c0-.259-.142-.387-.425-.387s-.431.177-.431.545V8.732H102.7V4.873a3.36,3.36,0,0,1,.12-.979,1.953,1.953,0,0,1,.409-.715,2.315,2.315,0,0,1,.818-.578,2.5,2.5,0,0,1,1.009-.213,2.163,2.163,0,0,1,1.582.633,2.119,2.119,0,0,1,.641,1.571,1.969,1.969,0,0,1-.575,1.475,2.152,2.152,0,0,1-1.582.521h-.273Zm6.5-1.636V6.324h-1.2a.638.638,0,0,0-.346.071.273.273,0,0,0-.1.243c0,.131.033.215.1.256a.949.949,0,0,0,.425.063h1.235V8.721h-1.445a2.242,2.242,0,0,1-1.555-.485,1.8,1.8,0,0,1-.545-1.407V4.406a1.827,1.827,0,0,1,.51-1.364,1.986,1.986,0,0,1,1.445-.488h1.6V4.316H110.3c-.316,0-.475.1-.475.308a.273.273,0,0,0,.112.251.818.818,0,0,0,.4.071Zm5.348-2.392-1.909,4.407h1.909V8.735H112l1.909-4.4h-2.018V2.555Z" transform="translate(-74.688 -1.736)" fill="#86bc25"/>
      </g>
    </g>
  </g>
</svg>
