<svg id="peixe" xmlns="http://www.w3.org/2000/svg" width="98.466" height="78.432" viewBox="0 0 98.466 78.432">
  <g id="Layer_1" data-name="Layer 1" transform="translate(0 0)">
    <path id="Caminho_21" data-name="Caminho 21" d="M8.034,36.469,0,28.43c4.736-1.652,8.857,0,12.566,4.736,8.654-13.389,13.6-18.755,29.045-24.1.823-3.089,0-6.387-1.24-9.065C43.466.412,49.436,3.913,51.7,7.815c33.166,2.261,44.909,17.713,46.763,39.345L85.076,49.832l12.347,3.105c-8.435,31.108-70.645,40.376-84.035-10.5C10.92,47.378,7.414,49.207,3.3,49.207Z" transform="translate(0 0)" fill="#86bc25" fill-rule="evenodd"/>
    <path id="Caminho_22" data-name="Caminho 22" d="M100.848,75.4c10.941,0,19.98-8.237,19.98-18.125s-9.065-18.13-19.98-18.13c-11.123,0-20.188,8.242-20.188,18.13S89.725,75.4,100.848,75.4Z" transform="translate(-38.638 -18.749)" fill="#fff" fill-rule="evenodd"/>
    <path id="Caminho_23" data-name="Caminho 23" d="M130.51,74.18c3.506,0,6.179-2.475,6.179-5.559,0-2.886-2.673-5.361-6.179-5.361-3.293,0-5.97,2.475-5.97,5.361A5.77,5.77,0,0,0,130.51,74.18Z" transform="translate(-59.657 -30.303)" fill="#1d1d1b" stroke="#1d1d1b" stroke-miterlimit="22.93" stroke-width="1.19" fill-rule="evenodd"/>
    <path id="Caminho_24" data-name="Caminho 24" d="M134.546,73.55a2.579,2.579,0,1,0,0-5.153,2.583,2.583,0,1,0,0,5.153Z" transform="translate(-63.067 -32.762)" fill="#fff" stroke="#1d1d1b" stroke-miterlimit="22.93" stroke-width="1.19" fill-rule="evenodd"/>
  </g>
</svg>
