<svg xmlns="http://www.w3.org/2000/svg" width="51" height="51" viewBox="0 0 51 51">
  <g id="programacao" transform="translate(0 -0.001)">
    <g id="Grupo_63" data-name="Grupo 63" transform="translate(38.848 37.263)">
      <g id="Grupo_62" data-name="Grupo 62">
        <path id="Caminho_232" data-name="Caminho 232" d="M391.7,374.372a1,1,0,1,0,.292.7A1,1,0,0,0,391.7,374.372Z" transform="translate(-390 -374.08)" fill="#f2f2f2"/>
      </g>
    </g>
    <g id="Grupo_65" data-name="Grupo 65" transform="translate(0 0.001)">
      <g id="Grupo_64" data-name="Grupo 64">
        <path id="Caminho_233" data-name="Caminho 233" d="M47.016,0H3.984A3.989,3.989,0,0,0,0,3.985V35.271a3.989,3.989,0,0,0,3.984,3.984H19.623v5A5.785,5.785,0,0,0,14.41,50a1,1,0,0,0,1,1H35.594a1,1,0,0,0,1-1,5.784,5.784,0,0,0-5.412-5.765V39.255h4.648a1,1,0,1,0,0-1.992H3.984a1.994,1.994,0,0,1-1.992-1.992V3.985A1.994,1.994,0,0,1,3.984,1.993H47.016a1.994,1.994,0,0,1,1.992,1.992V35.271a1.994,1.994,0,0,1-1.992,1.992H43.3a1,1,0,1,0,0,1.992h3.719A3.989,3.989,0,0,0,51,35.271V3.985A3.989,3.989,0,0,0,47.016,0Zm-25.4,39.254h7.57v4.972h-7.57Zm9.2,6.964a3.792,3.792,0,0,1,3.652,2.789H16.535a3.792,3.792,0,0,1,3.652-2.789Z" transform="translate(0 -0.001)" fill="#f2f2f2"/>
      </g>
    </g>
    <g id="Grupo_67" data-name="Grupo 67" transform="translate(24.404 34.075)">
      <g id="Grupo_66" data-name="Grupo 66">
        <path id="Caminho_234" data-name="Caminho 234" d="M246.7,342.373a1,1,0,1,0,.292.7A1,1,0,0,0,246.7,342.373Z" transform="translate(-245 -342.081)" fill="#f2f2f2"/>
      </g>
    </g>
    <g id="Grupo_69" data-name="Grupo 69" transform="translate(12.158 11.68)">
      <g id="Grupo_68" data-name="Grupo 68">
        <path id="Caminho_235" data-name="Caminho 235" d="M124.46,123.829l4.88-4.88a1,1,0,1,0-1.409-1.409l-5.585,5.585a1,1,0,0,0,0,1.409l5.585,5.585a1,1,0,1,0,1.409-1.409Z" transform="translate(-122.055 -117.248)" fill="#f2f2f2"/>
      </g>
    </g>
    <g id="Grupo_71" data-name="Grupo 71" transform="translate(31.265 11.68)">
      <g id="Grupo_70" data-name="Grupo 70">
        <path id="Caminho_236" data-name="Caminho 236" d="M321.162,123.125l-5.585-5.585a1,1,0,0,0-1.409,1.409l4.88,4.88-4.88,4.88a1,1,0,0,0,1.409,1.409l5.585-5.585A1,1,0,0,0,321.162,123.125Z" transform="translate(-313.877 -117.248)" fill="#f2f2f2"/>
      </g>
    </g>
    <g id="Grupo_73" data-name="Grupo 73" transform="translate(23.013 12.072)">
      <g id="Grupo_72" data-name="Grupo 72">
        <path id="Caminho_237" data-name="Caminho 237" d="M235.264,121.22a1,1,0,0,0-1.22.7l-2.982,11.129a1,1,0,1,0,1.924.516l2.982-11.129A1,1,0,0,0,235.264,121.22Z" transform="translate(-231.028 -121.186)" fill="#f2f2f2"/>
      </g>
    </g>
    <g id="Grupo_75" data-name="Grupo 75" transform="translate(3.984 3.994)">
      <g id="Grupo_74" data-name="Grupo 74">
        <path id="Caminho_238" data-name="Caminho 238" d="M82.035,40.084H66.2a1,1,0,0,0,0,1.992H81.039v24.9H41.992v-24.9h15.29a1,1,0,0,0,0-1.992H41a1,1,0,0,0-1,1V67.975a1,1,0,0,0,1,1H82.035a1,1,0,0,0,1-1V41.08A1,1,0,0,0,82.035,40.084Z" transform="translate(-40 -40.084)" fill="#f2f2f2"/>
      </g>
    </g>
    <g id="Grupo_77" data-name="Grupo 77" transform="translate(24.703 3.993)">
      <g id="Grupo_76" data-name="Grupo 76">
        <path id="Caminho_239" data-name="Caminho 239" d="M249.7,40.373a1,1,0,1,0,.292.7A1,1,0,0,0,249.7,40.373Z" transform="translate(-248 -40.081)" fill="#f2f2f2"/>
      </g>
    </g>
  </g>
</svg>
