<svg xmlns="http://www.w3.org/2000/svg" width="23" height="222.174" viewBox="0 0 23 222.174">
  <g id="Grupo_102" data-name="Grupo 102" transform="translate(-327.5 -414)">
    <text id="Vamos_Conversar_" data-name="Vamos Conversar!" transform="translate(350.5 457) rotate(90)" fill="#f2f2f2" font-size="16" font-family="Poppins-Medium, Poppins" font-weight="500" letter-spacing="-0.02em"><tspan x="0" y="17">Vamos Conversar!</tspan></text>
    <path id="Caminho_41" data-name="Caminho 41" d="M0,0V35" transform="translate(339 414)" fill="none" stroke="#f2f2f2" stroke-width="1"/>
    <g id="whatsapp_1" transform="matrix(1, 0.017, -0.017, 1, 329.176, 615.828)">
      <path id="Caminho_38" data-name="Caminho 38" d="M17.245,11.808l-.009.051c-2.149-.752-2.374-.852-2.651-.56-.193.2-.753.661-.923.8a.606.606,0,0,1-.631.051,9.107,9.107,0,0,1-2.348-1.019A7.168,7.168,0,0,1,9.06,9.71c-.286-.347.313-.4.858-1.121a.282.282,0,0,0-.024-.359c-.073-.1-.657-1.111-.9-1.513a.6.6,0,0,0-.657-.35A1.916,1.916,0,0,0,7,6.6c-1.577,1.217-1.18,2.472.17,3.807a12.185,12.185,0,0,0,6.649,3.508A5.708,5.708,0,0,0,15.656,14a3.2,3.2,0,0,0,1.97-.978,1.235,1.235,0,0,0,.176-.977C17.73,11.953,17.538,11.9,17.245,11.808Z" transform="translate(2.568 -3.83) rotate(21)" fill="#f2f2f2"/>
      <path id="Caminho_39" data-name="Caminho 39" d="M17.1,2.874C10.693-3.32.088,1.172.084,9.911a9.863,9.863,0,0,0,1.329,4.954L0,20l5.279-1.377A9.975,9.975,0,0,0,20,9.916a9.828,9.828,0,0,0-2.913-7.009Zm1.235,7.014a8.3,8.3,0,0,1-12.51,7.087l-.3-.178L2.4,17.609l.838-3.037-.2-.312a8.265,8.265,0,0,1,12.872-10.2,8.156,8.156,0,0,1,2.424,5.825Z" transform="translate(0 0)" fill="#f2f2f2"/>
    </g>
  </g>
</svg>
