<svg xmlns="http://www.w3.org/2000/svg" width="46.725" height="54.177" viewBox="0 0 46.725 54.177">
  <g id="testes_entrega" transform="translate(-6.127 -2)">
    <path id="Caminho_84" data-name="Caminho 84" d="M31.612,18.224A3.612,3.612,0,1,0,28,14.612,3.612,3.612,0,0,0,31.612,18.224Zm0-5.418a1.806,1.806,0,1,1-1.806,1.806A1.806,1.806,0,0,1,31.612,12.806Z" transform="translate(-2.123 -0.873)" fill="#f2f2f2"/>
    <path id="Caminho_85" data-name="Caminho 85" d="M31,29h1.806v1.806H31Z" transform="translate(-2.414 -2.62)" fill="#f2f2f2"/>
    <path id="Caminho_86" data-name="Caminho 86" d="M31,33h1.806v6.321H31Z" transform="translate(-2.414 -3.009)" fill="#f2f2f2"/>
    <path id="Caminho_87" data-name="Caminho 87" d="M52.649,51.093a.9.9,0,0,0-.7-.334H51.16V26.38a.9.9,0,0,0-.9-.9H44.55l-.623-4.632a.887.887,0,0,0-.488-.686l-4.957-2.483C38.148,9.16,30.41,2.5,30.076,2.217a.9.9,0,0,0-1.174,0C28.568,2.5,20.83,9.16,20.5,17.675l-4.957,2.483a.887.887,0,0,0-.488.686l-.623,4.632H8.721a.9.9,0,0,0-.9.9v24.38H7.024a.9.9,0,0,0-.7.334.893.893,0,0,0-.181.758l.786,3.612a.9.9,0,0,0,.885.713H51.16a.9.9,0,0,0,.885-.713l.786-3.612a.893.893,0,0,0-.181-.758Zm-14.176-31.4L42.2,21.558,43.81,33.6H41.823l-2.474-5.77a.9.9,0,0,0-.831-.551H37.01a26.018,26.018,0,0,0,1.463-7.594ZM29.489,4.131c1.815,1.725,7.224,7.458,7.224,14.122a22.96,22.96,0,0,1-2.176,10.212c-.786-3.368-2.718-5.7-5.047-5.7s-4.262,2.33-5.047,5.7a22.96,22.96,0,0,1-2.176-10.212c0-6.655,5.409-12.388,7.224-14.122Zm0,34.574c-1.147-1.093-3.612-3.819-3.612-6.908,0-4.253,1.905-7.224,3.612-7.224S33.1,27.544,33.1,31.8C33.1,34.885,30.636,37.612,29.489,38.7Zm9.029-.587v9.029H20.459V38.118h6.077a16.827,16.827,0,0,0,2.384,2.51.914.914,0,0,0,1.138,0,16.827,16.827,0,0,0,2.384-2.51ZM16.775,21.558,20.5,19.689a26.018,26.018,0,0,0,1.463,7.594H20.459a.9.9,0,0,0-.831.551L17.155,33.6H15.168ZM9.624,27.282h4.569l-.948,7.106a.9.9,0,0,0,.217.713.886.886,0,0,0,.677.307h3.612a.9.9,0,0,0,.831-.551l2.474-5.77h1.67a14,14,0,0,0,1.363,2.221c-.009.163-.018.325-.018.488a9.419,9.419,0,0,0,1.273,4.515H19.556a.9.9,0,0,0-.9.9V48.05a.9.9,0,0,0,.9.9H39.421a.9.9,0,0,0,.9-.9V37.215a.9.9,0,0,0-.9-.9H33.633A9.419,9.419,0,0,0,34.907,31.8c0-.163-.009-.325-.018-.488a14,14,0,0,0,1.363-2.221h1.67l2.474,5.77a.9.9,0,0,0,.831.551h3.612a.886.886,0,0,0,.677-.307.9.9,0,0,0,.217-.713l-.948-7.106h4.569V50.759H32.2a.9.9,0,0,0-.9.9H27.683a.9.9,0,0,0-.9-.9H9.624ZM50.437,54.371H8.541l-.388-1.806H25.877a.9.9,0,0,0,.9.9H32.2a.9.9,0,0,0,.9-.9H50.826Z" transform="translate(0)" fill="#f2f2f2"/>
    <path id="Caminho_88" data-name="Caminho 88" d="M46,44h5.418v1.806H46Z" transform="translate(-3.87 -4.076)" fill="#f2f2f2"/>
    <path id="Caminho_89" data-name="Caminho 89" d="M46.9,53.418h3.612a.9.9,0,0,0,.9-.9V48.9a.9.9,0,0,0-.9-.9H46.9a.9.9,0,0,0-.9.9v3.612A.9.9,0,0,0,46.9,53.418Zm.9-3.612h1.806v1.806H47.806Z" transform="translate(-3.87 -4.464)" fill="#f2f2f2"/>
    <path id="Caminho_90" data-name="Caminho 90" d="M12,44h5.418v1.806H12Z" transform="translate(-0.57 -4.076)" fill="#f2f2f2"/>
    <path id="Caminho_91" data-name="Caminho 91" d="M16.515,48H12.9a.9.9,0,0,0-.9.9v3.612a.9.9,0,0,0,.9.9h3.612a.9.9,0,0,0,.9-.9V48.9A.9.9,0,0,0,16.515,48Zm-.9,3.612H13.806V49.806h1.806Z" transform="translate(-0.57 -4.464)" fill="#f2f2f2"/>
    <path id="Caminho_92" data-name="Caminho 92" d="M43.806,7.418h1.806V5.612h1.806V3.806H45.612V2H43.806V3.806H42V5.612h1.806Z" transform="translate(-3.482 0)" fill="#f2f2f2"/>
    <path id="Caminho_93" data-name="Caminho 93" d="M51.806,13.418h1.806V11.612h1.806V9.806H53.612V8H51.806V9.806H50v1.806h1.806Z" transform="translate(-4.258 -0.582)" fill="#f2f2f2"/>
    <path id="Caminho_94" data-name="Caminho 94" d="M17.806,7.418h1.806V5.612h1.806V3.806H19.612V2H17.806V3.806H16V5.612h1.806Z" transform="translate(-0.958 0)" fill="#f2f2f2"/>
    <path id="Caminho_95" data-name="Caminho 95" d="M9.806,13.418h1.806V11.612h1.806V9.806H11.612V8H9.806V9.806H8v1.806H9.806Z" transform="translate(-0.182 -0.582)" fill="#f2f2f2"/>
  </g>
</svg>
