<?xml version="1.0" encoding="UTF-8"?><svg id="Camada_2" xmlns="http://www.w3.org/2000/svg" viewBox="0 0 142.25 142.25"><defs><style>.cls-1{fill:#f2f2f2;font-family:Poppins-Medium, Poppins;font-size:9px;font-weight:500;}</style></defs><g id="Camada_2-2"><text class="cls-1" transform="translate(89.62 131.95) rotate(165.57)"><tspan x="0" y="0">S</tspan></text><text class="cls-1" transform="translate(83.89 133.36) rotate(169.99)"><tspan x="0" y="0">t</tspan></text><text class="cls-1" transform="translate(80.14 134.05) rotate(174.54)"><tspan x="0" y="0">u</tspan></text><text class="cls-1" transform="translate(73.91 134.67) rotate(-179.07)"><tspan x="0" y="0">d</tspan></text><text class="cls-1" transform="translate(67.32 134.52) rotate(-175.56)"><tspan x="0" y="0">i</tspan></text><text class="cls-1" transform="translate(64.49 134.35) rotate(-171.49)"><tspan x="0" y="0">o</tspan></text><text class="cls-1" transform="translate(58.35 133.35) rotate(-167.4)"><tspan x="0" y="0"> </tspan></text><text class="cls-1" transform="translate(55.6 132.77) rotate(-163.48)"><tspan x="0" y="0">P</tspan></text><text class="cls-1" transform="translate(50.05 131.11) rotate(-158.13)"><tspan x="0" y="0">e</tspan></text><text class="cls-1" transform="translate(44.49 128.82) rotate(-153.27)"><tspan x="0" y="0">z</tspan></text><text class="cls-1" transform="translate(40.28 126.65) rotate(-149.84)"><tspan x="0" y="0"> </tspan></text><text class="cls-1" transform="translate(37.84 125.28) rotate(-146)"><tspan x="0" y="0">-</tspan></text><text class="cls-1" transform="translate(33.1 122) rotate(-142.14)"><tspan x="0" y="0"> </tspan></text><text class="cls-1" transform="translate(30.86 120.33) rotate(-137.86)"><tspan x="0" y="0">A</tspan></text><text class="cls-1" transform="translate(25.92 115.8) rotate(-132.25)"><tspan x="0" y="0">c</tspan></text><text class="cls-1" transform="translate(21.99 111.45) rotate(-126.92)"><tspan x="0" y="0">e</tspan></text><text class="cls-1" transform="translate(18.42 106.64) rotate(-121.87)"><tspan x="0" y="0">s</tspan></text><text class="cls-1" transform="translate(15.66 102.17) rotate(-117.12)"><tspan x="0" y="0">s</tspan></text><text class="cls-1" transform="translate(13.3 97.44) rotate(-113.43)"><tspan x="0" y="0">i</tspan></text><text class="cls-1" transform="translate(12.12 94.85) rotate(-109.16)"><tspan x="0" y="0">b</tspan></text><text class="cls-1" transform="translate(10.05 88.61) rotate(-104.87)"><tspan x="0" y="0">i</tspan></text><text class="cls-1" transform="translate(9.32 85.83) rotate(-102.26)"><tspan x="0" y="0">l</tspan></text><text class="cls-1" transform="translate(8.72 83) rotate(-99.63)"><tspan x="0" y="0">i</tspan></text><text class="cls-1" transform="translate(8.19 80.2) rotate(-95.39)"><tspan x="0" y="0">d</tspan></text><text class="cls-1" transform="translate(7.57 73.71) rotate(-89.07)"><tspan x="0" y="0">a</tspan></text><text class="cls-1" transform="translate(7.67 67.16) rotate(-83.75)"><tspan x="0" y="0">d</tspan></text><text class="cls-1" transform="translate(8.41 60.68) rotate(-78.1)"><tspan x="0" y="0">e</tspan></text><text class="cls-1" transform="translate(9.73 54.79) rotate(-74.08)"><tspan x="0" y="0"> </tspan></text><text class="cls-1" transform="translate(10.45 52.08) rotate(-69.93)"><tspan x="0" y="0">n</tspan></text><text class="cls-1" transform="translate(12.61 46.21) rotate(-64.14)"><tspan x="0" y="0">a</tspan></text><text class="cls-1" transform="translate(15.57 40.32) rotate(-59.88)"><tspan x="0" y="0"> </tspan></text><text class="cls-1" transform="translate(16.84 37.84) rotate(-54.39)"><tspan x="0" y="0">W</tspan></text><text class="cls-1" transform="translate(22.4 30.3) rotate(-47.52)"><tspan x="0" y="0">e</tspan></text><text class="cls-1" transform="translate(26.45 25.88) rotate(-41.9)"><tspan x="0" y="0">b</tspan></text><text class="cls-1" transform="translate(31.4 21.56) rotate(-37.69)"><tspan x="0" y="0"> </tspan></text><text class="cls-1" transform="translate(33.61 19.81) rotate(-33.85)"><tspan x="0" y="0">-</tspan></text><text class="cls-1" transform="translate(38.42 16.67) rotate(-29.99)"><tspan x="0" y="0"> </tspan></text><text class="cls-1" transform="translate(40.82 15.21) rotate(-25.62)"><tspan x="0" y="0">D</tspan></text><text class="cls-1" transform="translate(46.97 12.31) rotate(-19.82)"><tspan x="0" y="0">e</tspan></text><text class="cls-1" transform="translate(52.64 10.31) rotate(-14.7)"><tspan x="0" y="0">s</tspan></text><text class="cls-1" transform="translate(57.71 8.98) rotate(-9.61)"><tspan x="0" y="0">e</tspan></text><text class="cls-1" transform="translate(63.62 7.99) rotate(-4.08)"><tspan x="0" y="0">n</tspan></text><text class="cls-1" transform="translate(69.89 7.58) rotate(1.2)"><tspan x="0" y="0">v</tspan></text><text class="cls-1" transform="translate(75.51 7.71) rotate(6.48)"><tspan x="0" y="0">o</tspan></text><text class="cls-1" transform="translate(81.68 8.49) rotate(10.58)"><tspan x="0" y="0">l</tspan></text><text class="cls-1" transform="translate(84.48 8.98) rotate(14.43)"><tspan x="0" y="0">v</tspan></text><text class="cls-1" transform="translate(89.94 10.45) rotate(18.3)"><tspan x="0" y="0">i</tspan></text><text class="cls-1" transform="translate(92.67 11.19) rotate(24.02)"><tspan x="0" y="0">m</tspan></text><text class="cls-1" transform="translate(101.51 15.28) rotate(31.11)"><tspan x="0" y="0">e</tspan></text><text class="cls-1" transform="translate(106.62 18.38) rotate(36.62)"><tspan x="0" y="0">n</tspan></text><text class="cls-1" transform="translate(111.63 22.19) rotate(41.16)"><tspan x="0" y="0">t</tspan></text><text class="cls-1" transform="translate(114.53 24.69) rotate(45.66)"><tspan x="0" y="0">o</tspan></text><text class="cls-1" transform="translate(118.81 29.18) rotate(49.7)"><tspan x="0" y="0"> </tspan></text><text class="cls-1" transform="translate(120.72 31.22) rotate(55.18)"><tspan x="0" y="0">W</tspan></text><text class="cls-1" transform="translate(125.97 38.99) rotate(62.1)"><tspan x="0" y="0">e</tspan></text><text class="cls-1" transform="translate(128.77 44.29) rotate(67.78)"><tspan x="0" y="0">b</tspan></text><text class="cls-1" transform="translate(131.18 50.41) rotate(72.04)"><tspan x="0" y="0"> </tspan></text><text class="cls-1" transform="translate(132.08 53.08) rotate(75.93)"><tspan x="0" y="0">-</tspan></text><text class="cls-1" transform="translate(133.41 58.66) rotate(79.8)"><tspan x="0" y="0"> </tspan></text><text class="cls-1" transform="translate(133.98 61.39) rotate(84.4)"><tspan x="0" y="0">C</tspan></text><text class="cls-1" transform="translate(134.66 68.74) rotate(90.93)"><tspan x="0" y="0">o</tspan></text><text class="cls-1" transform="translate(134.58 74.91) rotate(95.98)"><tspan x="0" y="0">n</tspan></text><text class="cls-1" transform="translate(133.88 81.17) rotate(101.21)"><tspan x="0" y="0">s</tspan></text><text class="cls-1" transform="translate(132.86 86.32) rotate(106.43)"><tspan x="0" y="0">u</tspan></text><text class="cls-1" transform="translate(131 92.34) rotate(110.59)"><tspan x="0" y="0">l</tspan></text><text class="cls-1" transform="translate(129.99 95.04) rotate(113.65)"><tspan x="0" y="0">t</tspan></text><text class="cls-1" transform="translate(128.48 98.54) rotate(118.19)"><tspan x="0" y="0">o</tspan></text><text class="cls-1" transform="translate(125.5 103.98) rotate(122.75)"><tspan x="0" y="0">r</tspan></text><text class="cls-1" transform="translate(123.34 107.29) rotate(125.82)"><tspan x="0" y="0">i</tspan></text><text class="cls-1" transform="translate(121.72 109.62) rotate(130.04)"><tspan x="0" y="0">a</tspan></text><text class="cls-1" transform="translate(117.42 114.59) rotate(134.25)"><tspan x="0" y="0"> </tspan></text><text class="cls-1" transform="translate(115.58 116.68) rotate(139.72)"><tspan x="0" y="0">W</tspan></text><text class="cls-1" transform="translate(108.35 122.65) rotate(146.6)"><tspan x="0" y="0">e</tspan></text><text class="cls-1" transform="translate(103.33 125.95) rotate(152.27)"><tspan x="0" y="0">b</tspan></text><text class="cls-1" transform="translate(97.52 128.95) rotate(157.82)"><tspan x="0" y="0">-</tspan></text><text class="cls-1" transform="translate(92.18 131.06) rotate(161.7)"><tspan x="0" y="0"> </tspan></text></g></svg>