<svg xmlns="http://www.w3.org/2000/svg" width="50" height="50" viewBox="0 0 50 50">
  <g id="wireframe" transform="translate(0)">
    <path id="Caminho_143" data-name="Caminho 143" d="M.835,11.36A.835.835,0,0,1,0,10.525V3.675A3.679,3.679,0,0,1,3.675,0H21.3a.835.835,0,0,1,0,1.67H3.675a2.007,2.007,0,0,0-2,2v6.85a.835.835,0,0,1-.835.835Zm0,0" transform="translate(0)" fill="#f2f2f2"/>
    <path id="Caminho_144" data-name="Caminho 144" d="M32.754,31.244A2.451,2.451,0,1,0,35.2,28.793,2.453,2.453,0,0,0,32.754,31.244Zm3.232,0a.781.781,0,1,1-.781-.781A.782.782,0,0,1,35.985,31.244Zm0,0" transform="translate(-29.108 -25.588)" fill="#f2f2f2"/>
    <path id="Caminho_145" data-name="Caminho 145" d="M88.8,31.244a2.451,2.451,0,1,0,2.451-2.451A2.453,2.453,0,0,0,88.8,31.244Zm3.231,0a.781.781,0,1,1-.781-.781A.782.782,0,0,1,92.036,31.244Zm0,0" transform="translate(-80.247 -25.588)" fill="#f2f2f2"/>
    <path id="Caminho_146" data-name="Caminho 146" d="M144.852,31.244a2.451,2.451,0,1,0,2.451-2.451A2.453,2.453,0,0,0,144.852,31.244Zm3.231,0a.781.781,0,1,1-.781-.781A.782.782,0,0,1,148.083,31.244Zm0,0" transform="translate(-130.893 -25.588)" fill="#f2f2f2"/>
    <path id="Caminho_147" data-name="Caminho 147" d="M46.776,0H23.307a.733.733,0,0,0,0,1.465H46.776a1.761,1.761,0,0,1,1.759,1.759V8.5H1.465V3.224A1.761,1.761,0,0,1,3.224,1.465h15.46a.733.733,0,0,0,0-1.465H3.224A3.227,3.227,0,0,0,0,3.224V46.776A3.227,3.227,0,0,0,3.224,50H46.776A3.227,3.227,0,0,0,50,46.776V3.224A3.227,3.227,0,0,0,46.776,0Zm1.759,46.776a1.761,1.761,0,0,1-1.759,1.759H3.224a1.761,1.761,0,0,1-1.759-1.759V9.965H48.534Zm0,0" fill="#f2f2f2"/>
    <path id="Caminho_148" data-name="Caminho 148" d="M33.589,147.152a.835.835,0,0,0,.835-.835v-1.223a2.148,2.148,0,0,1,.353-1.184.835.835,0,1,0-1.4-.917,3.817,3.817,0,0,0-.627,2.1v1.223a.835.835,0,0,0,.835.835Zm0,0" transform="translate(-29.108 -128.857)" fill="#f2f2f2"/>
    <path id="Caminho_149" data-name="Caminho 149" d="M56.052,451.316a3.839,3.839,0,0,0,.613.049h2.48a.835.835,0,1,0,0-1.67h-2.48a2.2,2.2,0,0,1-.347-.028.835.835,0,1,0-.266,1.649Zm0,0" transform="translate(-49.188 -406.597)" fill="#f2f2f2"/>
    <path id="Caminho_150" data-name="Caminho 150" d="M60.471,132.131h2.956a.835.835,0,0,0,0-1.67H60.465a.835.835,0,0,0,.007,1.67Zm0,0" transform="translate(-52.994 -117.775)" fill="#f2f2f2"/>
    <path id="Caminho_151" data-name="Caminho 151" d="M109.382,451.674h2.962a.835.835,0,1,0,0-1.67h-2.962a.835.835,0,1,0,0,1.67Zm0,0" transform="translate(-98.078 -406.906)" fill="#f2f2f2"/>
    <path id="Caminho_152" data-name="Caminho 152" d="M113.656,132.131h2.962a.835.835,0,0,0,0-1.67h-2.962a.835.835,0,1,0,0,1.67Zm0,0" transform="translate(-101.939 -117.775)" fill="#f2f2f2"/>
    <path id="Caminho_153" data-name="Caminho 153" d="M33.589,199.6a.835.835,0,0,0,.835-.835V195.8a.835.835,0,0,0-1.67,0v2.962A.835.835,0,0,0,33.589,199.6Zm0,0" transform="translate(-29.108 -176.165)" fill="#f2f2f2"/>
    <path id="Caminho_154" data-name="Caminho 154" d="M33.851,412.427a.836.836,0,0,0,.761-1.178,2.136,2.136,0,0,1-.188-.884v-1.7a.835.835,0,0,0-1.67,0v1.7a3.8,3.8,0,0,0,.335,1.568A.835.835,0,0,0,33.851,412.427Zm0,0" transform="translate(-29.108 -369.429)" fill="#f2f2f2"/>
    <path id="Caminho_155" data-name="Caminho 155" d="M162.6,451.674h2.962a.835.835,0,1,0,0-1.67H162.6a.835.835,0,1,0,0,1.67Zm0,0" transform="translate(-146.161 -406.906)" fill="#f2f2f2"/>
    <path id="Caminho_156" data-name="Caminho 156" d="M33.589,252.816a.835.835,0,0,0,.835-.835v-2.962a.835.835,0,0,0-1.67,0v2.962A.835.835,0,0,0,33.589,252.816Zm0,0" transform="translate(-29.108 -224.247)" fill="#f2f2f2"/>
    <path id="Caminho_157" data-name="Caminho 157" d="M33.589,359.246a.835.835,0,0,0,.835-.835v-2.962a.835.835,0,1,0-1.67,0v2.962A.835.835,0,0,0,33.589,359.246Zm0,0" transform="translate(-29.108 -320.412)" fill="#f2f2f2"/>
    <path id="Caminho_158" data-name="Caminho 158" d="M33.589,306.031a.835.835,0,0,0,.835-.835v-2.962a.835.835,0,1,0-1.67,0V305.2A.835.835,0,0,0,33.589,306.031Zm0,0" transform="translate(-29.108 -272.33)" fill="#f2f2f2"/>
    <path id="Caminho_159" data-name="Caminho 159" d="M269.328,252.4a.835.835,0,0,0-.835.835V256.2a.835.835,0,1,0,1.67,0v-2.962a.835.835,0,0,0-.835-.835Zm0,0" transform="translate(-242.383 -228.055)" fill="#f2f2f2"/>
    <path id="Caminho_160" data-name="Caminho 160" d="M269.328,199.184a.835.835,0,0,0-.835.835v2.962a.835.835,0,0,0,1.67,0v-2.962A.835.835,0,0,0,269.328,199.184Zm0,0" transform="translate(-242.383 -179.973)" fill="#f2f2f2"/>
    <path id="Caminho_161" data-name="Caminho 161" d="M269.328,305.617a.835.835,0,0,0-.835.835v2.962a.835.835,0,0,0,1.67,0v-2.962A.835.835,0,0,0,269.328,305.617Zm0,0" transform="translate(-242.383 -276.141)" fill="#f2f2f2"/>
    <path id="Caminho_162" data-name="Caminho 162" d="M266.385,148.372v1.693a.835.835,0,0,0,1.67,0v-1.693a3.8,3.8,0,0,0-.338-1.575.835.835,0,1,0-1.522.687A2.149,2.149,0,0,1,266.385,148.372Zm0,0" transform="translate(-240.261 -132.193)" fill="#f2f2f2"/>
    <path id="Caminho_163" data-name="Caminho 163" d="M269.328,358.832a.835.835,0,0,0-.835.835v2.962a.835.835,0,0,0,1.67,0v-2.962A.835.835,0,0,0,269.328,358.832Zm0,0" transform="translate(-242.383 -324.224)" fill="#f2f2f2"/>
    <path id="Caminho_164" data-name="Caminho 164" d="M220.089,132.131h2.487a2.188,2.188,0,0,1,.342.027.855.855,0,0,0,.132.01.835.835,0,0,0,.13-1.66,3.848,3.848,0,0,0-.6-.048h-2.487a.835.835,0,0,0,0,1.67Zm0,0" transform="translate(-198.108 -117.776)" fill="#f2f2f2"/>
    <path id="Caminho_165" data-name="Caminho 165" d="M166.874,132.131h2.962a.835.835,0,0,0,0-1.67h-2.962a.835.835,0,0,0,0,1.67Zm0,0" transform="translate(-150.025 -117.775)" fill="#f2f2f2"/>
    <path id="Caminho_166" data-name="Caminho 166" d="M215.811,451.674h2.975a.835.835,0,1,0,0-1.67h-2.975a.835.835,0,1,0,0,1.67Zm0,0" transform="translate(-194.243 -406.906)" fill="#f2f2f2"/>
    <path id="Caminho_167" data-name="Caminho 167" d="M264.5,416.448a.834.834,0,0,0,1.156-.242,3.817,3.817,0,0,0,.622-2.094v-1.23a.835.835,0,1,0-1.67,0v1.23a2.149,2.149,0,0,1-.351,1.18A.835.835,0,0,0,264.5,416.448Zm0,0" transform="translate(-238.473 -373.174)" fill="#f2f2f2"/>
    <path id="Caminho_168" data-name="Caminho 168" d="M311.005,145.687a.837.837,0,0,0,.168.144,3.818,3.818,0,0,0,2.668,1.085h2.294a.835.835,0,0,0,0-1.67h-2.294a2.145,2.145,0,0,1-.87-.184l5.926-5.245,5.935,5.253a2.153,2.153,0,0,1-.854.177h-2.85a.835.835,0,0,0,0,1.67h2.85a3.818,3.818,0,0,0,2.755-1.173.781.781,0,0,0,.057-.057l.01-.013a3.816,3.816,0,0,0,1.009-2.588v-8.8a3.835,3.835,0,0,0-3.83-3.831H313.842a3.819,3.819,0,0,0-2.775,1.195.825.825,0,0,0-.061.062c-.008.009-.015.019-.023.028a3.815,3.815,0,0,0-.971,2.546v8.8a3.813,3.813,0,0,0,.888,2.45A.845.845,0,0,0,311.005,145.687Zm15.133-11.4v8.795a2.137,2.137,0,0,1-.148.779l-5.833-5.163,5.841-5.17A2.146,2.146,0,0,1,326.139,134.291Zm-12.3-2.16h10.137a2.146,2.146,0,0,1,.873.186l-5.954,5.27-5.946-5.262A2.147,2.147,0,0,1,313.842,132.131Zm-2.16,2.16a2.144,2.144,0,0,1,.134-.742l5.822,5.153-5.815,5.146a2.154,2.154,0,0,1-.141-.762Zm0,0" transform="translate(-282.499 -118.444)" fill="#f2f2f2"/>
    <path id="Caminho_169" data-name="Caminho 169" d="M311.015,332.4a.729.729,0,0,0,.058.058,3.819,3.819,0,0,0,2.766,1.185h10.137a3.819,3.819,0,0,0,2.767-1.185.8.8,0,0,0,.057-.058l.01-.013a3.816,3.816,0,0,0,1-2.575v-8.795a3.814,3.814,0,0,0-1-2.575l-.01-.013a.843.843,0,0,0-.062-.063,3.819,3.819,0,0,0-2.762-1.181H313.839a3.82,3.82,0,0,0-2.762,1.181c-.021.02-.042.04-.062.063l-.01.013a3.816,3.816,0,0,0-1,2.575v8.795a3.816,3.816,0,0,0,1,2.575Zm12.961-.427H313.839a2.146,2.146,0,0,1-.872-.186l5.94-5.257,5.94,5.257A2.147,2.147,0,0,1,323.975,331.97Zm2.16-10.956v8.8a2.144,2.144,0,0,1-.141.76l-5.828-5.158L326,320.254a2.142,2.142,0,0,1,.141.76Zm-12.3-2.16h10.137a2.148,2.148,0,0,1,.872.185l-5.94,5.258-5.94-5.258A2.146,2.146,0,0,1,313.839,318.854Zm-2.16,2.16a2.145,2.145,0,0,1,.141-.761l5.828,5.158-5.828,5.158a2.143,2.143,0,0,1-.141-.761Zm0,0" transform="translate(-282.496 -288.872)" fill="#f2f2f2"/>
  </g>
</svg>
